<svg width="136" height="125" viewBox="0 0 136 125" fill="none" xmlns="http://www.w3.org/2000/svg">
<path d="M2.54545 66V55.6648L3.89773 55.4716C5.53977 55.214 6.90009 54.5057 7.97869 53.3466C9.07339 52.1714 9.91051 50.312 10.4901 47.7685C11.0857 45.2088 11.464 41.7235 11.625 37.3125L12.3977 16.5455H48.233V66H35.2898V26.9773H24.7614L23.9886 42.5284C23.6989 48.2917 22.9261 52.8878 21.6705 56.3168C20.4148 59.7457 18.5071 62.2169 15.9474 63.7301C13.3878 65.2434 10.0152 66 5.82955 66H2.54545Z" fill="#938282"/>
<path d="M27.4055 27.0909V62H26.3145V27.0909H27.4055Z" fill="#938282"/>
<path d="M33.4055 27.0909V62H32.3145V27.0909H33.4055Z" fill="#938282"/>
<path d="M31.4055 27.0909V62H30.3145V27.0909H31.4055Z" fill="#938282"/>
<path d="M29.4055 27.0909V62H28.3145V27.0909H29.4055Z" fill="#938282"/>
<path d="M8.6029 109V59.5455H29.0319C32.7345 59.5455 35.9301 60.2699 38.6185 61.7188C41.3231 63.1515 43.4078 65.1558 44.8728 67.7315C46.3377 70.2912 47.0702 73.2694 47.0702 76.6662C47.0702 80.0791 46.3216 83.0653 44.8245 85.625C43.3434 88.1686 41.2265 90.1406 38.4736 91.5412C35.7208 92.9418 32.4528 93.642 28.6697 93.642H16.0645V84.2244H26.4481C28.2511 84.2244 29.7563 83.9105 30.9637 83.2827C32.1872 82.6548 33.1128 81.7775 33.7407 80.6506C34.3685 79.5076 34.6824 78.1794 34.6824 76.6662C34.6824 75.1368 34.3685 73.8168 33.7407 72.706C33.1128 71.5791 32.1872 70.7098 30.9637 70.098C29.7402 69.4863 28.235 69.1804 26.4481 69.1804H20.556V109H8.6029Z" fill="#938282"/>
<path d="M44.2044 120H31.849L47.8971 72.4364H63.202L79.2501 120H66.8947L55.7237 84.4202H55.3521L44.2044 120ZM42.5555 101.281H68.381V110.013H42.5555V101.281Z" fill="black"/>
<path d="M35.3156 30.4364H48.2284V55.333H48.6L65.5074 30.4364H76.4693V78H63.5565V53.0105H63.2778L46.0918 78H35.3156V30.4364Z" fill="black"/>
<rect x="84" y="43.1385" width="52" height="35" fill="black"/>
<path d="M119 48.6385C119 50.0192 117.881 51.1384 116.5 51.1384C115.119 51.1384 114 50.0192 114 48.6385C114 47.2578 115.119 46.1385 116.5 46.1385C117.881 46.1385 119 47.2578 119 48.6385Z" fill="#F5F5F5"/>
<path d="M106 48.6385C106 50.0192 104.881 51.1384 103.5 51.1384C102.119 51.1384 101 50.0192 101 48.6385C101 47.2578 102.119 46.1385 103.5 46.1385C104.881 46.1385 106 47.2578 106 48.6385Z" fill="#F5F5F5"/>
<path d="M103.65 49.5341C108.851 23.9556 112.695 37.5161 116.986 49.6161" stroke="#938282" stroke-width="2" stroke-miterlimit="2" stroke-linejoin="round"/>
<path d="M100.775 56.1818V70H97.0778V59.1506H92.4088V70H88.7114V56.1818H100.775ZM106.765 70H102.717L107.278 56.1818H112.406L116.967 70H112.918L109.896 59.9872H109.788L106.765 70ZM106.009 64.5483H113.62V67.3551H106.009V64.5483ZM126.813 70L122.575 64.4134H122.049V70H118.298V56.1818H122.049V61.3906H122.535L126.502 56.1818H131.225L125.962 62.821L131.522 70H126.813Z" fill="#F5F5F5"/>
</svg>
